<?xml version="1.0" encoding="utf-8"?>
<!-- Generator: Adobe Illustrator 17.1.0, SVG Export Plug-In . SVG Version: 6.00 Build 0)  -->
<!DOCTYPE svg PUBLIC "-//W3C//DTD SVG 1.1//EN" "http://www.w3.org/Graphics/SVG/1.1/DTD/svg11.dtd">
<svg version="1.1" id="Layer_1" xmlns="http://www.w3.org/2000/svg" xmlns:xlink="http://www.w3.org/1999/xlink" x="0px" y="0px"
	 width="190.8px" height="51.5px" viewBox="0 0 190.8 51.5" enable-background="new 0 0 190.8 51.5" xml:space="preserve">
<g>
	<g>
		<g>
			<defs>
				<path id="SVGID_1_" d="M45,8.6c9.5,10.6,8.5,26.9-2.1,36.4C32.3,54.5,16,53.5,6.5,42.9C-2.9,32.3-2,16,8.6,6.5
					C19.3-2.9,35.6-2,45,8.6z"/>
			</defs>
			<clipPath id="SVGID_2_">
				<use xlink:href="#SVGID_1_"  overflow="visible"/>
			</clipPath>
			<g clip-path="url(#SVGID_2_)">
				<path fill="none" stroke="#00BFF3" stroke-width="0.5162" stroke-miterlimit="10" d="M29-9.7c0,0-3.1,4.4-4.5,5.5
					c-1.4,1.2-5.1,2.5-6.5,3.7c-1.2,1.1-2.6,4.2-3.8,5.3c-1.1,1-4.2,1.8-5.3,2.8c-1.5,1.3-3.2,4.9-4.7,6.2C3,15-0.4,16-1.7,17.2
					c-1.1,1-2.4,3.9-3.5,4.9c-0.9,0.9-4.4,2.7-4.4,2.7"/>
				<path fill="none" stroke="#0DB9EC" stroke-width="0.5162" stroke-miterlimit="10" d="M30.8-7.6c0,0-3.1,4.4-4.5,5.5
					c-1.4,1.2-5.1,2.5-6.5,3.7c-1.2,1.1-2.6,4.2-3.8,5.3c-1.1,1-4.2,1.8-5.3,2.8c-1.5,1.3-3.2,4.9-4.7,6.2c-1.3,1.1-4.7,2.2-6,3.3
					c-1.1,1-2.4,3.9-3.5,4.9c-0.9,0.9-4.4,2.7-4.4,2.7"/>
				<path fill="none" stroke="#1BB3E4" stroke-width="0.5162" stroke-miterlimit="10" d="M32.7-5.5c0,0-3.1,4.4-4.5,5.5
					c-1.4,1.2-5.1,2.5-6.5,3.7C20.5,4.8,19.2,8,17.9,9c-1.1,1-4.2,1.8-5.3,2.8C11.2,13.1,9.4,16.7,8,18c-1.3,1.1-4.7,2.2-6,3.3
					c-1.1,1-2.4,3.9-3.5,4.9C-2.5,27.1-6,29-6,29"/>
				<path fill="none" stroke="#28ADDD" stroke-width="0.5162" stroke-miterlimit="10" d="M34.5-3.5c0,0-3.1,4.4-4.5,5.5
					c-1.4,1.2-5.1,2.5-6.5,3.8c-1.2,1.1-2.6,4.2-3.8,5.3c-1.1,1-4.2,1.8-5.3,2.8c-1.5,1.3-3.2,4.9-4.7,6.2c-1.3,1.1-4.7,2.2-6,3.3
					c-1.1,1-2.4,3.9-3.5,4.9C-0.7,29.2-4.1,31-4.1,31"/>
				<path fill="none" stroke="#35A7D5" stroke-width="0.5162" stroke-miterlimit="10" d="M36.4-1.4c0,0-3.1,4.4-4.5,5.5
					c-1.4,1.2-5.1,2.5-6.5,3.8c-1.2,1.1-2.6,4.2-3.8,5.3c-1.1,1-4.2,1.8-5.3,2.8c-1.5,1.3-3.2,4.9-4.7,6.2c-1.3,1.1-4.7,2.2-6,3.3
					c-1.1,1-2.4,3.9-3.5,4.9c-0.9,0.9-4.4,2.7-4.4,2.7"/>
				<path fill="none" stroke="#43A1CE" stroke-width="0.5162" stroke-miterlimit="10" d="M38.2,0.7c0,0-3.1,4.4-4.5,5.5
					c-1.4,1.2-5.1,2.5-6.5,3.8c-1.2,1.1-2.6,4.2-3.8,5.3c-1.1,1-4.2,1.8-5.3,2.8c-1.5,1.3-3.2,4.9-4.7,6.2c-1.3,1.1-4.7,2.2-6,3.3
					c-1.1,1-2.4,3.9-3.5,4.9c-0.9,0.9-4.4,2.7-4.4,2.7"/>
				<path fill="none" stroke="#509BC6" stroke-width="0.5162" stroke-miterlimit="10" d="M40.1,2.8c0,0-3.1,4.4-4.5,5.5
					c-1.4,1.2-5.1,2.5-6.5,3.8c-1.2,1.1-2.6,4.2-3.8,5.3c-1.1,1-4.2,1.8-5.3,2.8c-1.5,1.3-3.2,4.9-4.7,6.2c-1.3,1.1-4.7,2.2-6,3.3
					c-1.1,1-2.4,3.9-3.5,4.9c-0.9,0.9-4.4,2.7-4.4,2.7"/>
				<path fill="none" stroke="#5D95BF" stroke-width="0.5162" stroke-miterlimit="10" d="M41.9,4.8c0,0-3.1,4.4-4.5,5.5
					c-1.4,1.2-5.1,2.5-6.5,3.8c-1.2,1.1-2.6,4.2-3.8,5.3c-1.1,1-4.2,1.8-5.3,2.8c-1.5,1.3-3.2,4.9-4.7,6.2c-1.3,1.1-4.7,2.2-6,3.3
					c-1.1,1-2.4,3.9-3.5,4.9c-0.9,0.9-4.4,2.7-4.4,2.7"/>
				<path fill="none" stroke="#6B8FB7" stroke-width="0.5162" stroke-miterlimit="10" d="M43.7,6.9c0,0-3.1,4.4-4.5,5.5
					c-1.4,1.2-5.1,2.5-6.5,3.8c-1.2,1.1-2.6,4.2-3.8,5.3c-1.1,1-4.2,1.8-5.3,2.8c-1.5,1.3-3.2,4.9-4.7,6.2c-1.3,1.1-4.7,2.2-6,3.3
					c-1.1,1-2.4,3.9-3.5,4.9c-0.9,0.9-4.4,2.7-4.4,2.7"/>
				<path fill="none" stroke="#7889B0" stroke-width="0.5162" stroke-miterlimit="10" d="M45.6,9c0,0-3.1,4.4-4.5,5.5
					c-1.4,1.2-5.1,2.5-6.5,3.8c-1.2,1.1-2.6,4.2-3.8,5.3c-1.1,1-4.2,1.8-5.3,2.8c-1.5,1.3-3.2,4.9-4.7,6.2c-1.3,1.1-4.7,2.2-6,3.3
					c-1.1,1-2.4,3.9-3.5,4.9c-0.9,0.9-4.4,2.7-4.4,2.7"/>
				<path fill="none" stroke="#8582A9" stroke-width="0.5162" stroke-miterlimit="10" d="M47.4,11c0,0-3.1,4.4-4.5,5.5
					c-1.4,1.2-5.1,2.5-6.5,3.8c-1.2,1.1-2.6,4.2-3.8,5.3c-1.1,1-4.2,1.8-5.3,2.8c-1.5,1.3-3.2,4.9-4.7,6.2c-1.3,1.1-4.7,2.2-6,3.3
					c-1.1,1-2.4,3.9-3.5,4.9c-0.9,0.9-4.4,2.7-4.4,2.7"/>
				<path fill="none" stroke="#937CA1" stroke-width="0.5162" stroke-miterlimit="10" d="M49.3,13.1c0,0-3.1,4.4-4.5,5.5
					c-1.4,1.2-5.1,2.5-6.5,3.8c-1.2,1.1-2.6,4.2-3.8,5.3c-1.1,1-4.2,1.8-5.3,2.8c-1.5,1.3-3.2,4.9-4.7,6.2c-1.3,1.1-4.7,2.2-6,3.3
					c-1.1,1-2.4,3.9-3.5,4.9c-0.9,0.9-4.4,2.7-4.4,2.7"/>
				<path fill="none" stroke="#A0769A" stroke-width="0.5162" stroke-miterlimit="10" d="M51.1,15.2c0,0-3.1,4.4-4.5,5.5
					c-1.4,1.2-5.1,2.5-6.5,3.8c-1.2,1.1-2.6,4.2-3.8,5.3c-1.1,1-4.2,1.8-5.3,2.8c-1.5,1.3-3.2,4.9-4.7,6.2c-1.3,1.1-4.7,2.2-6,3.3
					c-1.1,1-2.4,3.9-3.5,4.9c-0.9,0.9-4.4,2.7-4.4,2.7"/>
				<path fill="none" stroke="#AD7092" stroke-width="0.5162" stroke-miterlimit="10" d="M52.9,17.2c0,0-3.1,4.4-4.5,5.5
					c-1.4,1.2-5.1,2.5-6.5,3.8c-1.2,1.1-2.6,4.2-3.8,5.3c-1.1,1-4.2,1.8-5.3,2.8c-1.5,1.3-3.2,4.9-4.7,6.2c-1.3,1.1-4.7,2.2-6,3.3
					c-1.1,1-2.4,3.9-3.5,4.9c-0.9,0.9-4.4,2.7-4.4,2.7"/>
				<path fill="none" stroke="#BB6A8B" stroke-width="0.5162" stroke-miterlimit="10" d="M54.8,19.3c0,0-3.1,4.4-4.5,5.5
					c-1.4,1.2-5.1,2.5-6.5,3.8c-1.2,1.1-2.6,4.2-3.8,5.3c-1.1,1-4.2,1.8-5.3,2.8c-1.5,1.3-3.2,4.9-4.7,6.2c-1.3,1.1-4.7,2.2-6,3.3
					c-1.1,1-2.4,3.9-3.5,4.9c-0.9,0.9-4.4,2.7-4.4,2.7"/>
				<path fill="none" stroke="#C86483" stroke-width="0.5162" stroke-miterlimit="10" d="M56.6,21.4c0,0-3.1,4.4-4.5,5.5
					c-1.4,1.2-5.1,2.5-6.5,3.8c-1.2,1.1-2.6,4.2-3.8,5.3c-1.1,1-4.2,1.8-5.3,2.8c-1.5,1.3-3.2,4.9-4.7,6.2c-1.3,1.1-4.7,2.2-6,3.3
					c-1.1,1-2.4,3.9-3.5,4.9c-0.9,0.9-4.4,2.7-4.4,2.7"/>
				<path fill="none" stroke="#D55E7C" stroke-width="0.5162" stroke-miterlimit="10" d="M58.5,23.5c0,0-3.1,4.4-4.5,5.5
					c-1.4,1.2-5.1,2.5-6.5,3.8c-1.2,1.1-2.6,4.2-3.8,5.3c-1.1,1-4.2,1.8-5.3,2.8c-1.5,1.3-3.2,4.9-4.7,6.2c-1.3,1.1-4.7,2.2-6,3.3
					c-1.1,1-2.4,3.9-3.5,4.9c-0.9,0.9-4.4,2.7-4.4,2.7"/>
				<path fill="none" stroke="#E35874" stroke-width="0.5162" stroke-miterlimit="10" d="M60.3,25.5c0,0-3.1,4.4-4.5,5.5
					c-1.4,1.2-5.1,2.5-6.5,3.8c-1.2,1.1-2.6,4.2-3.8,5.3c-1.1,1-4.2,1.8-5.3,2.8c-1.5,1.3-3.2,4.9-4.7,6.2c-1.3,1.1-4.7,2.2-6,3.3
					c-1.1,1-2.4,3.9-3.5,4.9c-0.9,0.9-4.4,2.7-4.4,2.7"/>
				<path fill="none" stroke="#F0526D" stroke-width="0.5162" stroke-miterlimit="10" d="M62.1,27.6c0,0-3.1,4.4-4.5,5.5
					c-1.4,1.2-5.1,2.5-6.5,3.8c-1.2,1.1-2.6,4.2-3.8,5.3c-1.1,1-4.2,1.8-5.3,2.8c-1.5,1.3-3.2,4.9-4.7,6.2c-1.3,1.1-4.7,2.2-6,3.3
					c-1.1,1-2.4,3.9-3.5,4.9c-0.9,0.9-4.4,2.7-4.4,2.7"/>
			</g>
		</g>
		<path fill-rule="evenodd" clip-rule="evenodd" fill="#FFFFFF" d="M33.8,18.6c4,4.4,3.5,11.2-0.9,15.2c-4.4,4-11.2,3.6-15.2-0.9
			c-4-4.4-3.6-11.3,0.9-15.2C23.1,13.8,29.9,14.2,33.8,18.6z"/>
	</g>
	<g>
		<g>
			<path fill-rule="evenodd" clip-rule="evenodd" fill="#212121" d="M105.4,41.8c-1.8,0.1-3.8,0.3-5.8,0.5c-0.1-0.7-0.3-1.3-0.4-1.9
				c-1,0.4-1.9,0.9-2.8,1.3c-2.7,1-5.4,0.9-7.9-0.6c-2.2-1.3-3.4-3.3-4.2-5.6c-1-3.4-1.1-6.9,0-10.3c1.3-4.1,4.3-6.3,8.5-6.9
				c2-0.3,4-0.2,6.1,0.4v-12c2.1-0.2,4.1-0.3,6.1-0.5c0,0,0,15.9,0,28.2C104.9,37.4,105.2,39.5,105.4,41.8z M98.8,29.9
				c0-2,0-4.5,0-6.5c0,0-0.1-0.1-0.4-0.2c-1.2-0.4-2.4-0.6-3.6-0.5c-1.8,0.1-3.2,0.9-4,2.5c-0.6,1.2-0.8,2.6-0.9,3.9
				c-0.1,1.8,0,3.6,0.6,5.4c0.5,1.5,1.5,2.6,3.1,2.9c1.7,0.4,3.3,0,4.8-0.8c0.3-0.2,0.4-0.3,0.4-0.3C98.8,34.4,98.8,31.9,98.8,29.9z
				"/>
			<path fill-rule="evenodd" clip-rule="evenodd" fill="#212121" d="M71.5,37.6l0.2-1.5c0.1-0.8,0.2-1.5,0.3-1.9
				c0.5-2,1.3-3.9,1.9-5.8c0.9-3.1,3.2-9.8,3.2-9.8s4.4,0,6.5,0c-0.5,1.3-0.9,2.5-1.4,3.7c-2.5,6.4-7.7,19.6-7.7,19.6l-6.2,0
				c0,0-9-23.1-9-23.3c1.4-0.1,6.8-0.5,6.8-0.5s2.3,7.6,3.4,11.1c0.5,1.6,1.1,3.3,1.6,5c0.1,0.3,0.2,1,0.3,1.9L71.5,37.6z"/>
			<path fill-rule="evenodd" clip-rule="evenodd" fill="#212121" d="M110.1,6.7c2-0.2,4.1-0.3,6.1-0.5c0,11.9,0,23.7,0,35.6
				c-2,0-4,0-6.1,0C110.1,30.1,110.1,18.4,110.1,6.7z"/>
			<path fill-rule="evenodd" clip-rule="evenodd" fill="#212121" d="M132.1,18.5c-1.5,1.9-3,3.7-4.4,5.6c-0.9,1.2-1.9,2.4-2.8,3.6
				c-0.5,0.6-2.5,1.4-3.5,1.5c1,0,2.9,0.8,3.4,1.4c2.3,3.1,4.8,6.8,7.1,9.9l0,1.3c-1.9,0-4.4,0-6.3,0l-8.2-12.7
				c2.5-3.3,5.4-7.3,7.8-10.6C125.3,18.5,129.8,18.5,132.1,18.5z"/>
		</g>
	</g>
	<g>
		<g>
			<path fill="#212121" d="M143.9,27.7v-5.1H141v5.1h-0.6v-5.6h4.1v5.6H143.9z"/>
			<path fill="#212121" d="M150.5,24.8c0,0.4-0.1,0.9-0.2,1.2c-0.1,0.4-0.3,0.7-0.5,0.9c-0.2,0.3-0.5,0.5-0.8,0.6
				c-0.3,0.1-0.7,0.2-1,0.2c-0.3,0-0.5,0-0.7-0.1c-0.2-0.1-0.4-0.1-0.5-0.2v2.4h-0.6v-7.8h0.5l0.1,0.5c0.2-0.2,0.4-0.3,0.6-0.4
				c0.2-0.1,0.5-0.2,0.9-0.2c0.4,0,0.7,0.1,1,0.2c0.3,0.1,0.5,0.3,0.7,0.6c0.2,0.3,0.3,0.6,0.4,0.9C150.4,24,150.5,24.4,150.5,24.8z
				 M149.9,24.9c0-0.3,0-0.6-0.1-0.9c-0.1-0.3-0.2-0.5-0.3-0.8c-0.1-0.2-0.3-0.4-0.5-0.5c-0.2-0.1-0.5-0.2-0.8-0.2
				c-0.3,0-0.6,0.1-0.8,0.2c-0.2,0.1-0.4,0.3-0.6,0.5v3.7c0.1,0.1,0.3,0.2,0.5,0.3c0.2,0.1,0.4,0.1,0.7,0.1c0.6,0,1.1-0.2,1.4-0.6
				C149.7,26.2,149.9,25.6,149.9,24.9z"/>
			<path fill="#212121" d="M156.2,24.9c0,0.4-0.1,0.7-0.2,1.1c-0.1,0.4-0.3,0.7-0.4,0.9c-0.2,0.3-0.4,0.5-0.7,0.6
				c-0.3,0.2-0.6,0.2-1,0.2c-0.4,0-0.7-0.1-1-0.3c-0.3-0.2-0.5-0.4-0.7-0.7c-0.2-0.3-0.3-0.6-0.4-0.9c-0.1-0.4-0.2-0.7-0.2-1.1
				c0-0.4,0-0.7,0.1-1.1c0.1-0.3,0.2-0.7,0.4-0.9c0.2-0.3,0.4-0.5,0.7-0.6c0.3-0.2,0.6-0.2,1-0.2c0.4,0,0.7,0.1,1,0.2
				c0.3,0.2,0.5,0.4,0.7,0.7c0.2,0.3,0.4,0.6,0.5,0.9C156.2,24.1,156.2,24.5,156.2,24.9z M155.6,24.9c0-0.3,0-0.6-0.1-0.9
				c-0.1-0.3-0.2-0.5-0.3-0.8c-0.1-0.2-0.3-0.4-0.6-0.5c-0.2-0.1-0.5-0.2-0.8-0.2c-0.3,0-0.6,0.1-0.8,0.2c-0.2,0.1-0.4,0.3-0.6,0.5
				c-0.1,0.2-0.3,0.5-0.3,0.8c-0.1,0.3-0.1,0.6-0.1,0.9c0,0.3,0,0.6,0.1,0.9c0.1,0.3,0.2,0.6,0.3,0.8c0.1,0.2,0.3,0.4,0.6,0.6
				c0.2,0.1,0.5,0.2,0.8,0.2c0.3,0,0.6-0.1,0.8-0.2c0.2-0.1,0.4-0.3,0.6-0.6c0.1-0.2,0.3-0.5,0.3-0.8
				C155.6,25.5,155.6,25.2,155.6,24.9z"/>
			<path fill="#212121" d="M161.6,29v-1.3h-4.1v-5.6h0.6v5.1h2.8v-5.1h0.6v5.1h0.6V29H161.6z"/>
			<path fill="#212121" d="M163.4,24.8c0,0.8,0.2,1.4,0.5,1.8c0.3,0.4,0.8,0.7,1.4,0.7c0.7,0,1.2-0.2,1.7-0.7l0.2,0.5
				c0,0-0.1,0.1-0.2,0.2c-0.1,0.1-0.2,0.2-0.4,0.2c-0.2,0.1-0.3,0.1-0.5,0.2c-0.2,0.1-0.4,0.1-0.7,0.1c-0.8,0-1.4-0.3-1.8-0.8
				c-0.4-0.5-0.6-1.2-0.6-2.2c0-0.5,0.1-0.9,0.2-1.2c0.1-0.4,0.3-0.7,0.5-0.9c0.2-0.2,0.4-0.4,0.7-0.6c0.3-0.1,0.6-0.2,0.9-0.2
				c0.4,0,0.7,0.1,0.9,0.2c0.3,0.1,0.5,0.3,0.7,0.6c0.2,0.2,0.3,0.5,0.4,0.9c0.1,0.4,0.1,0.7,0.2,1.2H163.4z M166.7,24.3
				c0-0.3-0.1-0.6-0.2-0.8c-0.1-0.2-0.2-0.4-0.4-0.6c-0.1-0.1-0.3-0.3-0.5-0.3c-0.2-0.1-0.4-0.1-0.5-0.1c-0.4,0-0.8,0.1-1.1,0.4
				c-0.3,0.3-0.5,0.7-0.6,1.4H166.7z"/>
			<path fill="#212121" d="M172.5,27.1c-0.2,0.2-0.4,0.3-0.7,0.5c-0.3,0.2-0.7,0.2-1.1,0.2c-0.3,0-0.7-0.1-1-0.2
				c-0.3-0.1-0.5-0.3-0.8-0.6c-0.2-0.2-0.4-0.6-0.5-0.9c-0.1-0.4-0.2-0.8-0.2-1.2c0-0.5,0.1-0.9,0.2-1.3c0.1-0.4,0.3-0.7,0.5-0.9
				c0.2-0.2,0.5-0.4,0.7-0.5c0.3-0.1,0.6-0.2,0.9-0.2c0.3,0,0.5,0,0.7,0.1c0.2,0.1,0.4,0.2,0.6,0.3c0.2,0.1,0.3,0.2,0.4,0.4
				c0.1,0.1,0.2,0.3,0.2,0.4l-0.4,0.3c-0.2-0.3-0.4-0.5-0.6-0.7c-0.2-0.2-0.5-0.2-0.9-0.2c-0.3,0-0.5,0.1-0.7,0.2
				c-0.2,0.1-0.4,0.3-0.5,0.5c-0.2,0.2-0.3,0.5-0.3,0.8c-0.1,0.3-0.1,0.6-0.1,1c0,0.4,0,0.7,0.1,1c0.1,0.3,0.2,0.5,0.4,0.8
				c0.2,0.2,0.4,0.4,0.6,0.5c0.2,0.1,0.5,0.2,0.8,0.2c0.3,0,0.5-0.1,0.8-0.2c0.2-0.1,0.5-0.3,0.7-0.5L172.5,27.1z"/>
			<path fill="#212121" d="M177.5,27.1c-0.2,0.2-0.4,0.3-0.7,0.5c-0.3,0.2-0.7,0.2-1.1,0.2c-0.3,0-0.7-0.1-1-0.2
				c-0.3-0.1-0.5-0.3-0.8-0.6c-0.2-0.2-0.4-0.6-0.5-0.9c-0.1-0.4-0.2-0.8-0.2-1.2c0-0.5,0.1-0.9,0.2-1.3c0.1-0.4,0.3-0.7,0.5-0.9
				c0.2-0.2,0.5-0.4,0.7-0.5c0.3-0.1,0.6-0.2,0.9-0.2c0.3,0,0.5,0,0.7,0.1c0.2,0.1,0.4,0.2,0.6,0.3c0.2,0.1,0.3,0.2,0.4,0.4
				c0.1,0.1,0.2,0.3,0.2,0.4l-0.4,0.3c-0.2-0.3-0.4-0.5-0.6-0.7c-0.2-0.2-0.5-0.2-0.9-0.2c-0.3,0-0.5,0.1-0.7,0.2
				c-0.2,0.1-0.4,0.3-0.5,0.5c-0.2,0.2-0.3,0.5-0.3,0.8c-0.1,0.3-0.1,0.6-0.1,1c0,0.4,0,0.7,0.1,1c0.1,0.3,0.2,0.5,0.4,0.8
				c0.2,0.2,0.4,0.4,0.6,0.5c0.2,0.1,0.5,0.2,0.8,0.2c0.3,0,0.5-0.1,0.8-0.2c0.2-0.1,0.5-0.3,0.7-0.5L177.5,27.1z"/>
			<path fill="#212121" d="M182.6,25.8c0,0.3,0,0.5-0.1,0.7c-0.1,0.2-0.2,0.4-0.4,0.6c-0.2,0.2-0.4,0.3-0.6,0.4
				c-0.3,0.1-0.6,0.2-0.9,0.2h-2v-5.6h0.6v1.8h1.4c0.4,0,0.7,0,0.9,0.1c0.3,0.1,0.5,0.2,0.6,0.4c0.2,0.2,0.3,0.4,0.4,0.6
				C182.6,25.3,182.6,25.5,182.6,25.8z M182,25.8c0-0.5-0.1-0.8-0.4-1c-0.3-0.2-0.6-0.3-1.1-0.3h-1.4v2.7h1.4c0.5,0,0.8-0.1,1.1-0.4
				C181.9,26.6,182,26.2,182,25.8z M183.7,27.7v-5.6h0.6v5.6H183.7z"/>
			<path fill="#212121" d="M144,40.5v-4.2l-3,3.6v0.6h-0.6V35h0.6v4.2l3-3.6V35h0.6v5.6H144z"/>
			<path fill="#212121" d="M151.6,40.5l0-0.5c-0.2,0.2-0.4,0.3-0.6,0.4c-0.3,0.1-0.6,0.2-0.9,0.2c-0.2,0-0.5,0-0.7-0.1
				c-0.2-0.1-0.4-0.2-0.6-0.3c-0.2-0.1-0.3-0.3-0.4-0.5c-0.1-0.2-0.1-0.4-0.1-0.7c0-0.4,0.1-0.7,0.3-1c0.2-0.3,0.4-0.5,0.8-0.6
				c0.3-0.2,0.7-0.3,1.1-0.3c0.4-0.1,0.8-0.1,1.2-0.1v-0.2c0-0.4-0.1-0.8-0.3-1c-0.2-0.2-0.5-0.4-0.9-0.4c-0.3,0-0.6,0.1-0.8,0.2
				c-0.3,0.1-0.5,0.3-0.6,0.4l-0.2-0.5c0.1-0.1,0.2-0.1,0.3-0.2c0.1-0.1,0.3-0.1,0.4-0.2c0.2-0.1,0.3-0.1,0.5-0.2
				c0.2,0,0.4-0.1,0.6-0.1c0.6,0,1,0.2,1.3,0.5c0.3,0.3,0.4,0.8,0.4,1.4v3.8H151.6z M151.5,37.4c-0.3,0-0.6,0-1,0.1
				c-0.3,0-0.6,0.1-0.9,0.2c-0.3,0.1-0.5,0.3-0.6,0.5c-0.2,0.2-0.2,0.5-0.2,0.8c0,0.2,0,0.4,0.1,0.5c0.1,0.1,0.2,0.3,0.3,0.4
				c0.1,0.1,0.2,0.2,0.4,0.2c0.1,0,0.3,0.1,0.5,0.1c0.3,0,0.6-0.1,0.8-0.2c0.2-0.1,0.5-0.3,0.6-0.5V37.4z"/>
			<path fill="#212121" d="M157.1,40.5v-5.1h-2.9v5.1h-0.6v-5.6h4.1v5.6H157.1z"/>
			<path fill="#212121" d="M162.9,40.5v-5.1h-2.9v5.1h-0.6v-5.6h4.1v5.6H162.9z"/>
			<path fill="#212121" d="M168,40.5l0-0.5c-0.2,0.2-0.4,0.3-0.6,0.4c-0.3,0.1-0.6,0.2-0.9,0.2c-0.3,0-0.5,0-0.7-0.1
				c-0.2-0.1-0.4-0.2-0.6-0.3c-0.2-0.1-0.3-0.3-0.4-0.5c-0.1-0.2-0.1-0.4-0.1-0.7c0-0.4,0.1-0.7,0.3-1c0.2-0.3,0.4-0.5,0.8-0.6
				c0.3-0.2,0.7-0.3,1.1-0.3c0.4-0.1,0.8-0.1,1.2-0.1v-0.2c0-0.4-0.1-0.8-0.3-1c-0.2-0.2-0.5-0.4-0.9-0.4c-0.3,0-0.6,0.1-0.8,0.2
				c-0.3,0.1-0.5,0.3-0.6,0.4l-0.2-0.5c0.1-0.1,0.2-0.1,0.3-0.2c0.1-0.1,0.3-0.1,0.4-0.2c0.2-0.1,0.3-0.1,0.5-0.2
				c0.2,0,0.4-0.1,0.6-0.1c0.6,0,1,0.2,1.3,0.5c0.3,0.3,0.4,0.8,0.4,1.4v3.8H168z M168,37.4c-0.3,0-0.6,0-1,0.1
				c-0.3,0-0.6,0.1-0.9,0.2c-0.3,0.1-0.5,0.3-0.6,0.5c-0.2,0.2-0.2,0.5-0.2,0.8c0,0.2,0,0.4,0.1,0.5c0.1,0.1,0.2,0.3,0.3,0.4
				c0.1,0.1,0.2,0.2,0.4,0.2c0.1,0,0.3,0.1,0.5,0.1c0.3,0,0.6-0.1,0.8-0.2c0.2-0.1,0.5-0.3,0.6-0.5V37.4z"/>
			<path fill="#212121" d="M174.4,37.7c0,0.4-0.1,0.9-0.2,1.2c-0.1,0.4-0.3,0.7-0.5,0.9c-0.2,0.3-0.5,0.5-0.8,0.6
				c-0.3,0.1-0.7,0.2-1,0.2c-0.3,0-0.5,0-0.7-0.1c-0.2-0.1-0.4-0.1-0.5-0.2v2.4h-0.6v-7.8h0.5l0.1,0.5c0.2-0.2,0.4-0.3,0.6-0.4
				c0.2-0.1,0.5-0.2,0.9-0.2c0.4,0,0.7,0.1,1,0.2c0.3,0.1,0.5,0.3,0.7,0.6c0.2,0.3,0.3,0.6,0.4,0.9
				C174.4,36.9,174.4,37.3,174.4,37.7z M173.9,37.7c0-0.3,0-0.6-0.1-0.9c-0.1-0.3-0.2-0.5-0.3-0.8c-0.1-0.2-0.3-0.4-0.5-0.5
				c-0.2-0.1-0.5-0.2-0.8-0.2c-0.3,0-0.6,0.1-0.8,0.2c-0.2,0.1-0.4,0.3-0.6,0.5v3.7c0.1,0.1,0.3,0.2,0.5,0.3
				c0.2,0.1,0.4,0.1,0.7,0.1c0.6,0,1.1-0.2,1.4-0.6C173.7,39.1,173.9,38.5,173.9,37.7z"/>
			<path fill="#212121" d="M178.7,40.5l0-0.5c-0.2,0.2-0.4,0.3-0.6,0.4c-0.3,0.1-0.6,0.2-0.9,0.2c-0.2,0-0.5,0-0.7-0.1
				c-0.2-0.1-0.4-0.2-0.6-0.3c-0.2-0.1-0.3-0.3-0.4-0.5c-0.1-0.2-0.1-0.4-0.1-0.7c0-0.4,0.1-0.7,0.3-1c0.2-0.3,0.4-0.5,0.8-0.6
				c0.3-0.2,0.7-0.3,1.1-0.3c0.4-0.1,0.8-0.1,1.2-0.1v-0.2c0-0.4-0.1-0.8-0.3-1c-0.2-0.2-0.5-0.4-0.9-0.4c-0.3,0-0.6,0.1-0.8,0.2
				c-0.3,0.1-0.5,0.3-0.6,0.4l-0.2-0.5c0.1-0.1,0.2-0.1,0.3-0.2c0.1-0.1,0.3-0.1,0.4-0.2c0.2-0.1,0.3-0.1,0.5-0.2
				c0.2,0,0.4-0.1,0.6-0.1c0.6,0,1,0.2,1.3,0.5c0.3,0.3,0.4,0.8,0.4,1.4v3.8H178.7z M178.7,37.4c-0.3,0-0.6,0-1,0.1
				c-0.3,0-0.6,0.1-0.9,0.2c-0.3,0.1-0.5,0.3-0.6,0.5c-0.2,0.2-0.2,0.5-0.2,0.8c0,0.2,0,0.4,0.1,0.5c0.1,0.1,0.2,0.3,0.3,0.4
				c0.1,0.1,0.2,0.2,0.4,0.2c0.1,0,0.3,0.1,0.5,0.1c0.3,0,0.6-0.1,0.8-0.2c0.2-0.1,0.5-0.3,0.6-0.5V37.4z"/>
			<path fill="#212121" d="M182.4,35.5v5.1h-0.6v-5.1h-1.8v-0.5h4.1v0.5H182.4z"/>
			<path fill="#212121" d="M189.2,38.6c0,0.3,0,0.5-0.1,0.7c-0.1,0.2-0.2,0.4-0.4,0.6c-0.2,0.2-0.4,0.3-0.6,0.4
				c-0.3,0.1-0.6,0.2-0.9,0.2h-2V35h0.6v1.8h1.4c0.4,0,0.7,0,0.9,0.1c0.3,0.1,0.5,0.2,0.6,0.4c0.2,0.2,0.3,0.4,0.4,0.6
				C189.1,38.1,189.2,38.3,189.2,38.6z M188.6,38.6c0-0.5-0.1-0.8-0.4-1c-0.2-0.2-0.6-0.3-1.1-0.3h-1.4V40h1.4
				c0.5,0,0.8-0.1,1.1-0.4C188.4,39.4,188.6,39,188.6,38.6z M190.2,40.5V35h0.6v5.6H190.2z"/>
		</g>
	</g>
</g>
</svg>
